<mxfile host="app.diagrams.net" modified="2021-02-17T15:32:57.670Z" agent="5.0 (Macintosh; Intel Mac OS X 11_1_0) AppleWebKit/537.36 (KHTML, like Gecko) Chrome/88.0.4324.150 Safari/537.36" etag="3nUSZz0txUTxBC96BhA1" version="14.3.2" type="github" pages="4">
  <diagram name="Page-1" id="2cc2dc42-3aac-f2a9-1cec-7a8b7cbee084">
    <mxGraphModel dx="2046" dy="471" grid="1" gridSize="10" guides="1" tooltips="1" connect="1" arrows="1" fold="1" page="1" pageScale="1" pageWidth="1100" pageHeight="850" background="#ffffff" math="0" shadow="0">
      <root>
        <mxCell id="0" />
        <mxCell id="1" parent="0" />
        <UserObject label="" link="data:page/id,UjNzWl6VY7v8phnMuu3q" id="bwPGyWGZ9CdQI4z46cEa-62">
          <mxCell style="strokeWidth=1;shadow=0;dashed=0;align=center;html=1;shape=mxgraph.mockup.containers.browserWindow;rSize=0;strokeColor=#666666;mainText=,;recursiveResize=0;rounded=0;labelBackgroundColor=none;fontFamily=Verdana;fontSize=12" vertex="1" parent="1">
            <mxGeometry x="-10" y="60" width="1170" height="825" as="geometry" />
          </mxCell>
        </UserObject>
        <mxCell id="bwPGyWGZ9CdQI4z46cEa-63" value="Page 1" style="strokeWidth=1;shadow=0;dashed=0;align=center;html=1;shape=mxgraph.mockup.containers.anchor;fontSize=17;fontColor=#666666;align=left;" vertex="1" parent="bwPGyWGZ9CdQI4z46cEa-62">
          <mxGeometry x="60" y="12" width="110" height="26" as="geometry" />
        </mxCell>
        <mxCell id="bwPGyWGZ9CdQI4z46cEa-64" value="https://www.default.com" style="strokeWidth=1;shadow=0;dashed=0;align=center;html=1;shape=mxgraph.mockup.containers.anchor;rSize=0;fontSize=17;fontColor=#666666;align=left;" vertex="1" parent="bwPGyWGZ9CdQI4z46cEa-62">
          <mxGeometry x="130" y="60" width="250" height="26" as="geometry" />
        </mxCell>
        <mxCell id="bwPGyWGZ9CdQI4z46cEa-65" value="Search" style="text;html=1;points=[];align=left;verticalAlign=top;spacingTop=-4;fontSize=15;fontFamily=Verdana" vertex="1" parent="bwPGyWGZ9CdQI4z46cEa-62">
          <mxGeometry x="370" y="398" width="170" height="30" as="geometry" />
        </mxCell>
        <mxCell id="bwPGyWGZ9CdQI4z46cEa-66" value="Search" style="strokeWidth=1;shadow=0;dashed=0;align=center;html=1;shape=mxgraph.mockup.forms.searchBox;strokeColor=#999999;mainText=;strokeColor2=#008cff;fontColor=#666666;fontSize=17;align=left;spacingLeft=3;rounded=0;labelBackgroundColor=none;" vertex="1" parent="bwPGyWGZ9CdQI4z46cEa-62">
          <mxGeometry x="440" y="390.5" width="292" height="45" as="geometry" />
        </mxCell>
        <mxCell id="bwPGyWGZ9CdQI4z46cEa-67" value="" style="verticalLabelPosition=bottom;shadow=0;dashed=0;align=center;html=1;verticalAlign=top;strokeWidth=1;shape=mxgraph.mockup.markup.line;strokeColor=#999999;rounded=0;labelBackgroundColor=none;fillColor=#ffffff;fontFamily=Verdana;fontSize=12;fontColor=#000000;" vertex="1" parent="bwPGyWGZ9CdQI4z46cEa-62">
          <mxGeometry y="140" width="1110" height="20" as="geometry" />
        </mxCell>
        <mxCell id="bwPGyWGZ9CdQI4z46cEa-69" value="" style="verticalLabelPosition=bottom;shadow=0;dashed=0;align=center;html=1;verticalAlign=top;strokeWidth=1;shape=mxgraph.mockup.graphics.simpleIcon;strokeColor=#999999;fillColor=#ffffff;rounded=0;labelBackgroundColor=none;fontFamily=Verdana;fontSize=12;fontColor=#000000;" vertex="1" parent="bwPGyWGZ9CdQI4z46cEa-62">
          <mxGeometry x="40" y="480" width="170" height="70" as="geometry" />
        </mxCell>
        <mxCell id="bwPGyWGZ9CdQI4z46cEa-70" value="Pets - R -Us" style="text;html=1;points=[];align=left;verticalAlign=top;spacingTop=-4;fontSize=30;fontFamily=Verdana" vertex="1" parent="bwPGyWGZ9CdQI4z46cEa-62">
          <mxGeometry x="190" width="340" height="30" as="geometry" />
        </mxCell>
        <mxCell id="bwPGyWGZ9CdQI4z46cEa-71" value="" style="verticalLabelPosition=bottom;shadow=0;dashed=0;align=center;html=1;verticalAlign=top;strokeWidth=1;shape=mxgraph.mockup.graphics.simpleIcon;strokeColor=#999999;fillColor=#ffffff;rounded=0;labelBackgroundColor=none;fontFamily=Verdana;fontSize=12;fontColor=#000000;" vertex="1" parent="bwPGyWGZ9CdQI4z46cEa-62">
          <mxGeometry x="370" y="155" width="470" height="230" as="geometry" />
        </mxCell>
        <mxCell id="bwPGyWGZ9CdQI4z46cEa-72" value="" style="verticalLabelPosition=bottom;shadow=0;dashed=0;align=center;html=1;verticalAlign=top;strokeWidth=1;shape=mxgraph.mockup.markup.line;strokeColor=#999999;rounded=0;labelBackgroundColor=none;fillColor=#ffffff;fontFamily=Verdana;fontSize=12;fontColor=#000000;" vertex="1" parent="bwPGyWGZ9CdQI4z46cEa-62">
          <mxGeometry x="10" y="770" width="1110" height="20" as="geometry" />
        </mxCell>
        <mxCell id="bwPGyWGZ9CdQI4z46cEa-73" value="" style="verticalLabelPosition=bottom;shadow=0;dashed=0;align=center;html=1;verticalAlign=top;strokeWidth=1;shape=mxgraph.mockup.graphics.simpleIcon;strokeColor=#999999;fillColor=#ffffff;rounded=0;labelBackgroundColor=none;fontFamily=Verdana;fontSize=12;fontColor=#000000;" vertex="1" parent="bwPGyWGZ9CdQI4z46cEa-62">
          <mxGeometry x="910" y="480" width="170" height="70" as="geometry" />
        </mxCell>
        <mxCell id="bwPGyWGZ9CdQI4z46cEa-74" value="" style="verticalLabelPosition=bottom;shadow=0;dashed=0;align=center;html=1;verticalAlign=top;strokeWidth=1;shape=mxgraph.mockup.graphics.simpleIcon;strokeColor=#999999;fillColor=#ffffff;rounded=0;labelBackgroundColor=none;fontFamily=Verdana;fontSize=12;fontColor=#000000;" vertex="1" parent="bwPGyWGZ9CdQI4z46cEa-62">
          <mxGeometry x="620" y="480" width="170" height="70" as="geometry" />
        </mxCell>
        <mxCell id="bwPGyWGZ9CdQI4z46cEa-75" value="" style="verticalLabelPosition=bottom;shadow=0;dashed=0;align=center;html=1;verticalAlign=top;strokeWidth=1;shape=mxgraph.mockup.graphics.simpleIcon;strokeColor=#999999;fillColor=#ffffff;rounded=0;labelBackgroundColor=none;fontFamily=Verdana;fontSize=12;fontColor=#000000;" vertex="1" parent="bwPGyWGZ9CdQI4z46cEa-62">
          <mxGeometry x="320" y="480" width="170" height="70" as="geometry" />
        </mxCell>
        <mxCell id="bwPGyWGZ9CdQI4z46cEa-76" value="" style="verticalLabelPosition=bottom;shadow=0;dashed=0;align=center;html=1;verticalAlign=top;strokeWidth=1;shape=mxgraph.mockup.graphics.simpleIcon;strokeColor=#999999;fillColor=#ffffff;rounded=0;labelBackgroundColor=none;fontFamily=Verdana;fontSize=12;fontColor=#000000;" vertex="1" parent="bwPGyWGZ9CdQI4z46cEa-62">
          <mxGeometry x="910" y="590" width="170" height="70" as="geometry" />
        </mxCell>
        <mxCell id="bwPGyWGZ9CdQI4z46cEa-77" value="" style="verticalLabelPosition=bottom;shadow=0;dashed=0;align=center;html=1;verticalAlign=top;strokeWidth=1;shape=mxgraph.mockup.graphics.simpleIcon;strokeColor=#999999;fillColor=#ffffff;rounded=0;labelBackgroundColor=none;fontFamily=Verdana;fontSize=12;fontColor=#000000;" vertex="1" parent="bwPGyWGZ9CdQI4z46cEa-62">
          <mxGeometry x="620" y="580" width="170" height="70" as="geometry" />
        </mxCell>
        <mxCell id="bwPGyWGZ9CdQI4z46cEa-78" value="" style="verticalLabelPosition=bottom;shadow=0;dashed=0;align=center;html=1;verticalAlign=top;strokeWidth=1;shape=mxgraph.mockup.graphics.simpleIcon;strokeColor=#999999;fillColor=#ffffff;rounded=0;labelBackgroundColor=none;fontFamily=Verdana;fontSize=12;fontColor=#000000;" vertex="1" parent="bwPGyWGZ9CdQI4z46cEa-62">
          <mxGeometry x="320" y="580" width="170" height="70" as="geometry" />
        </mxCell>
        <mxCell id="bwPGyWGZ9CdQI4z46cEa-79" value="" style="verticalLabelPosition=bottom;shadow=0;dashed=0;align=center;html=1;verticalAlign=top;strokeWidth=1;shape=mxgraph.mockup.graphics.simpleIcon;strokeColor=#999999;fillColor=#ffffff;rounded=0;labelBackgroundColor=none;fontFamily=Verdana;fontSize=12;fontColor=#000000;" vertex="1" parent="bwPGyWGZ9CdQI4z46cEa-62">
          <mxGeometry x="910" y="680" width="170" height="70" as="geometry" />
        </mxCell>
        <mxCell id="bwPGyWGZ9CdQI4z46cEa-80" value="" style="verticalLabelPosition=bottom;shadow=0;dashed=0;align=center;html=1;verticalAlign=top;strokeWidth=1;shape=mxgraph.mockup.graphics.simpleIcon;strokeColor=#999999;fillColor=#ffffff;rounded=0;labelBackgroundColor=none;fontFamily=Verdana;fontSize=12;fontColor=#000000;" vertex="1" parent="bwPGyWGZ9CdQI4z46cEa-62">
          <mxGeometry x="620" y="690" width="170" height="70" as="geometry" />
        </mxCell>
        <mxCell id="bwPGyWGZ9CdQI4z46cEa-81" value="" style="verticalLabelPosition=bottom;shadow=0;dashed=0;align=center;html=1;verticalAlign=top;strokeWidth=1;shape=mxgraph.mockup.graphics.simpleIcon;strokeColor=#999999;fillColor=#ffffff;rounded=0;labelBackgroundColor=none;fontFamily=Verdana;fontSize=12;fontColor=#000000;" vertex="1" parent="bwPGyWGZ9CdQI4z46cEa-62">
          <mxGeometry x="320" y="680" width="170" height="70" as="geometry" />
        </mxCell>
        <mxCell id="bwPGyWGZ9CdQI4z46cEa-82" value="" style="verticalLabelPosition=bottom;shadow=0;dashed=0;align=center;html=1;verticalAlign=top;strokeWidth=1;shape=mxgraph.mockup.graphics.simpleIcon;strokeColor=#999999;fillColor=#ffffff;rounded=0;labelBackgroundColor=none;fontFamily=Verdana;fontSize=12;fontColor=#000000;" vertex="1" parent="bwPGyWGZ9CdQI4z46cEa-62">
          <mxGeometry x="40" y="580" width="170" height="70" as="geometry" />
        </mxCell>
        <mxCell id="bwPGyWGZ9CdQI4z46cEa-83" value="" style="verticalLabelPosition=bottom;shadow=0;dashed=0;align=center;html=1;verticalAlign=top;strokeWidth=1;shape=mxgraph.mockup.graphics.simpleIcon;strokeColor=#999999;fillColor=#ffffff;rounded=0;labelBackgroundColor=none;fontFamily=Verdana;fontSize=12;fontColor=#000000;" vertex="1" parent="bwPGyWGZ9CdQI4z46cEa-62">
          <mxGeometry x="40" y="680" width="170" height="70" as="geometry" />
        </mxCell>
        <mxCell id="bwPGyWGZ9CdQI4z46cEa-84" value="&lt;b&gt;&lt;font style=&quot;font-size: 20px&quot;&gt;Email us&lt;/font&gt;&lt;/b&gt;" style="rounded=0;whiteSpace=wrap;html=1;" vertex="1" parent="bwPGyWGZ9CdQI4z46cEa-62">
          <mxGeometry x="1000" y="780" width="120" height="40" as="geometry" />
        </mxCell>
        <mxCell id="bwPGyWGZ9CdQI4z46cEa-85" value="&lt;b&gt;&lt;font style=&quot;font-size: 20px&quot;&gt;Top&lt;/font&gt;&lt;/b&gt;" style="rounded=0;whiteSpace=wrap;html=1;" vertex="1" parent="bwPGyWGZ9CdQI4z46cEa-62">
          <mxGeometry x="10" y="780" width="120" height="40" as="geometry" />
        </mxCell>
        <mxCell id="bwPGyWGZ9CdQI4z46cEa-86" value="&lt;b&gt;&lt;font style=&quot;font-size: 20px&quot;&gt;Supplies&lt;/font&gt;&lt;/b&gt;" style="rounded=0;whiteSpace=wrap;html=1;" vertex="1" parent="bwPGyWGZ9CdQI4z46cEa-62">
          <mxGeometry x="600" y="110" width="130" height="40" as="geometry" />
        </mxCell>
        <UserObject label="Dog Services" id="bwPGyWGZ9CdQI4z46cEa-90">
          <mxCell style="swimlane;fontStyle=1;childLayout=stackLayout;horizontal=1;startSize=40;horizontalStack=0;resizeParent=1;resizeParentMax=0;resizeLast=0;collapsible=1;marginBottom=0;align=center;fontSize=20;" vertex="1" parent="bwPGyWGZ9CdQI4z46cEa-62">
            <mxGeometry x="460" y="110" width="140" height="130" as="geometry">
              <mxRectangle x="460" y="110" width="130" height="50" as="alternateBounds" />
            </mxGeometry>
          </mxCell>
        </UserObject>
        <UserObject label="Grooming" link="data:page/id,UjNzWl6VY7v8phnMuu3q" id="bwPGyWGZ9CdQI4z46cEa-91">
          <mxCell style="text;strokeColor=none;fillColor=none;spacingLeft=4;spacingRight=4;overflow=hidden;rotatable=0;points=[[0,0.5],[1,0.5]];portConstraint=eastwest;fontSize=14;fontStyle=1" vertex="1" parent="bwPGyWGZ9CdQI4z46cEa-90">
            <mxGeometry y="40" width="140" height="30" as="geometry" />
          </mxCell>
        </UserObject>
        <UserObject label="Training" link="data:page/id,5cXXPEhdy7fOVtms2e3f" id="bwPGyWGZ9CdQI4z46cEa-92">
          <mxCell style="text;strokeColor=none;fillColor=none;spacingLeft=4;spacingRight=4;overflow=hidden;rotatable=0;points=[[0,0.5],[1,0.5]];portConstraint=eastwest;fontSize=14;fontStyle=1" vertex="1" parent="bwPGyWGZ9CdQI4z46cEa-90">
            <mxGeometry y="70" width="140" height="30" as="geometry" />
          </mxCell>
        </UserObject>
        <UserObject label="Boarding" link="data:page/id,-e-4WbTOceunnhfBybPd" id="bwPGyWGZ9CdQI4z46cEa-93">
          <mxCell style="text;strokeColor=none;fillColor=none;spacingLeft=4;spacingRight=4;overflow=hidden;rotatable=0;points=[[0,0.5],[1,0.5]];portConstraint=eastwest;fontSize=14;fontStyle=1" vertex="1" parent="bwPGyWGZ9CdQI4z46cEa-90">
            <mxGeometry y="100" width="140" height="30" as="geometry" />
          </mxCell>
        </UserObject>
        <mxCell id="bwPGyWGZ9CdQI4z46cEa-102" value="&lt;b&gt;&lt;font style=&quot;font-size: 20px&quot;&gt;pets Services&lt;/font&gt;&lt;/b&gt;" style="rounded=0;whiteSpace=wrap;html=1;" vertex="1" parent="bwPGyWGZ9CdQI4z46cEa-62">
          <mxGeometry x="860" y="110" width="130" height="40" as="geometry" />
        </mxCell>
        <mxCell id="bwPGyWGZ9CdQI4z46cEa-101" value="&lt;b&gt;&lt;font style=&quot;font-size: 20px&quot;&gt;pets for adoption&lt;/font&gt;&lt;/b&gt;" style="rounded=0;whiteSpace=wrap;html=1;" vertex="1" parent="bwPGyWGZ9CdQI4z46cEa-62">
          <mxGeometry x="990" y="110" width="130" height="40" as="geometry" />
        </mxCell>
        <mxCell id="bwPGyWGZ9CdQI4z46cEa-100" value="&lt;b&gt;&lt;font style=&quot;font-size: 20px&quot;&gt;Accessories&lt;/font&gt;&lt;/b&gt;" style="rounded=0;whiteSpace=wrap;html=1;" vertex="1" parent="bwPGyWGZ9CdQI4z46cEa-62">
          <mxGeometry x="730" y="110" width="130" height="40" as="geometry" />
        </mxCell>
        <mxCell id="KtNWBIsJd2_ZoRJD3Itz-2" value="Items&amp;nbsp; found" style="text;html=1;strokeColor=none;fillColor=none;align=center;verticalAlign=middle;whiteSpace=wrap;rounded=0;fontSize=14;fontColor=#3333FF;" vertex="1" parent="bwPGyWGZ9CdQI4z46cEa-62">
          <mxGeometry x="330" y="450" width="190" height="20" as="geometry" />
        </mxCell>
        <mxCell id="KtNWBIsJd2_ZoRJD3Itz-3" value="1 2 3 4 5 6 7 8 9 Next - preview" style="text;html=1;strokeColor=none;fillColor=none;align=center;verticalAlign=middle;whiteSpace=wrap;rounded=0;fontSize=14;fontColor=#3333FF;" vertex="1" parent="bwPGyWGZ9CdQI4z46cEa-62">
          <mxGeometry x="340" y="750" width="340" height="20" as="geometry" />
        </mxCell>
        <mxCell id="KtNWBIsJd2_ZoRJD3Itz-4" value="" style="image;html=1;image=img/lib/clip_art/finance/Shopping_Cart_128x128.png;fontSize=14;fontColor=#3333FF;" vertex="1" parent="bwPGyWGZ9CdQI4z46cEa-62">
          <mxGeometry x="1060" y="155" width="50" height="45" as="geometry" />
        </mxCell>
        <mxCell id="KtNWBIsJd2_ZoRJD3Itz-5" value="Edit shopping  card" style="text;strokeColor=none;fillColor=none;spacingLeft=4;spacingRight=4;overflow=hidden;rotatable=0;points=[[0,0.5],[1,0.5]];portConstraint=eastwest;fontSize=14;fontStyle=1" vertex="1" parent="bwPGyWGZ9CdQI4z46cEa-62">
          <mxGeometry x="920" y="210" width="140" height="30" as="geometry" />
        </mxCell>
        <mxCell id="t6D3B3TY92bXlh7yOM6T-7" value="" style="shape=mxgraph.bpmn.shape;html=1;verticalLabelPosition=bottom;labelBackgroundColor=#ffffff;verticalAlign=top;align=center;perimeter=ellipsePerimeter;outlineConnect=0;outline=eventInt;symbol=message;fontSize=14;fontColor=#3333FF;" vertex="1" parent="bwPGyWGZ9CdQI4z46cEa-62">
          <mxGeometry x="1120" y="775" width="50" height="50" as="geometry" />
        </mxCell>
        <mxCell id="t6D3B3TY92bXlh7yOM6T-42" value="&lt;b&gt;Dog Services&lt;/b&gt;" style="text;html=1;strokeColor=none;fillColor=none;align=center;verticalAlign=middle;whiteSpace=wrap;rounded=0;fontSize=14;fontColor=#3333FF;" vertex="1" parent="bwPGyWGZ9CdQI4z46cEa-62">
          <mxGeometry x="10" y="240" width="100" height="20" as="geometry" />
        </mxCell>
        <mxCell id="4IlPtPr7hLD8rRFgbkaB-4" value="" style="rounded=1;whiteSpace=wrap;html=1;absoluteArcSize=1;arcSize=14;strokeWidth=2;fontSize=14;fontColor=#3333FF;" vertex="1" parent="bwPGyWGZ9CdQI4z46cEa-62">
          <mxGeometry x="20" y="270" width="80" height="160" as="geometry" />
        </mxCell>
        <mxCell id="4IlPtPr7hLD8rRFgbkaB-6" value="" style="line;strokeWidth=1;rotatable=0;dashed=0;labelPosition=right;align=left;verticalAlign=middle;spacingTop=0;spacingLeft=6;points=[];portConstraint=eastwest;fontSize=14;fontColor=#3333FF;" vertex="1" parent="bwPGyWGZ9CdQI4z46cEa-62">
          <mxGeometry x="20" y="320" width="80" height="10" as="geometry" />
        </mxCell>
        <mxCell id="4IlPtPr7hLD8rRFgbkaB-7" value="" style="line;strokeWidth=1;rotatable=0;dashed=0;labelPosition=right;align=left;verticalAlign=middle;spacingTop=0;spacingLeft=6;points=[];portConstraint=eastwest;fontSize=14;fontColor=#3333FF;" vertex="1" parent="bwPGyWGZ9CdQI4z46cEa-62">
          <mxGeometry x="20" y="375" width="80" height="10" as="geometry" />
        </mxCell>
        <UserObject label="&lt;b&gt;Grooming&lt;/b&gt;" link="Grooming" id="4IlPtPr7hLD8rRFgbkaB-8">
          <mxCell style="text;html=1;strokeColor=none;fillColor=none;align=center;verticalAlign=middle;whiteSpace=wrap;rounded=0;fontSize=14;fontColor=#3333FF;" vertex="1" parent="bwPGyWGZ9CdQI4z46cEa-62">
            <mxGeometry x="25" y="290" width="70" height="20" as="geometry" />
          </mxCell>
        </UserObject>
        <UserObject label="&lt;b&gt;Training&lt;/b&gt;" link="Training" id="4IlPtPr7hLD8rRFgbkaB-9">
          <mxCell style="text;html=1;strokeColor=none;fillColor=none;align=center;verticalAlign=middle;whiteSpace=wrap;rounded=0;fontSize=14;fontColor=#3333FF;" vertex="1" parent="bwPGyWGZ9CdQI4z46cEa-62">
            <mxGeometry x="25" y="340" width="70" height="20" as="geometry" />
          </mxCell>
        </UserObject>
        <UserObject label="&lt;b&gt;Boarding&lt;/b&gt;" link="Boarding" id="4IlPtPr7hLD8rRFgbkaB-10">
          <mxCell style="text;html=1;strokeColor=none;fillColor=none;align=center;verticalAlign=middle;whiteSpace=wrap;rounded=0;fontSize=14;fontColor=#3333FF;" vertex="1" parent="bwPGyWGZ9CdQI4z46cEa-62">
            <mxGeometry x="25" y="390.5" width="70" height="20" as="geometry" />
          </mxCell>
        </UserObject>
      </root>
    </mxGraphModel>
  </diagram>
  <diagram id="UjNzWl6VY7v8phnMuu3q" name="Page-2">
    <mxGraphModel dx="946" dy="471" grid="1" gridSize="10" guides="1" tooltips="1" connect="1" arrows="1" fold="1" page="1" pageScale="1" pageWidth="850" pageHeight="1100" math="0" shadow="0">
      <root>
        <mxCell id="KBIX87L607nHnmSafwnl-0" />
        <mxCell id="KBIX87L607nHnmSafwnl-1" parent="KBIX87L607nHnmSafwnl-0" />
      </root>
    </mxGraphModel>
  </diagram>
  <diagram id="5cXXPEhdy7fOVtms2e3f" name="Page-3">
    <mxGraphModel dx="946" dy="471" grid="1" gridSize="10" guides="1" tooltips="1" connect="1" arrows="1" fold="1" page="1" pageScale="1" pageWidth="850" pageHeight="1100" math="0" shadow="0">
      <root>
        <mxCell id="ldzSIJqB-KCa6WsJT3Qp-0" />
        <mxCell id="ldzSIJqB-KCa6WsJT3Qp-1" parent="ldzSIJqB-KCa6WsJT3Qp-0" />
      </root>
    </mxGraphModel>
  </diagram>
  <diagram id="-e-4WbTOceunnhfBybPd" name="Page-4">
    <mxGraphModel dx="946" dy="471" grid="1" gridSize="10" guides="1" tooltips="1" connect="1" arrows="1" fold="1" page="1" pageScale="1" pageWidth="850" pageHeight="1100" math="0" shadow="0">
      <root>
        <mxCell id="bQdA2y1PoeMzfK8tCesN-0" />
        <mxCell id="bQdA2y1PoeMzfK8tCesN-1" parent="bQdA2y1PoeMzfK8tCesN-0" />
      </root>
    </mxGraphModel>
  </diagram>
</mxfile>
